<svg xmlns="http://www.w3.org/2000/svg" class="icon-subcalendar-detail i-4 i-sml" viewBox="4 -4 16 16" width="100"  height="100" ><g fill="rgba(0, 0, 0, 0.24)" id="subcalendar-detail"><circle cx="9" cy="7" r="1"></circle><path d="M9,3v1c1.7,0,3,1.3,3,3h1C13,4.8,11.2,3,9,3z"></path><path d="M9,0v1c3.3,0,6,2.7,6,6h1C16,3.1,12.9,0,9,0z"></path><path d="M18.5-4h-13C4.7-4,4-3.3,4-2.5v13C4,11.3,4.7,12,5.5,12h13c0.8,0,1.5-0.7,1.5-1.5v-13C20-3.3,19.3-4,18.5-4z M19,10.5 c0,0.3-0.2,0.5-0.5,0.5h-13C5.2,11,5,10.8,5,10.5v-13C5-2.8,5.2-3,5.5-3h13C18.8-3,19-2.8,19-2.5V10.5z"></path></g></svg>