<svg xmlns="http://www.w3.org/2000/svg" class="icon-contextmenu-custom i-mid i-o-36 i-h-o-54" viewBox="0 0 24 24" width="24"  height="24" ><g id="contextmenu-custom"><path d="M16.8,5.6c1.1,0,1.5,0.1,1.9,0.3c0.4,0.2,0.7,0.5,0.9,0.9S20,7.7,20,8.8v8c0,1.1-0.1,1.5-0.3,1.9 c-0.2,0.4-0.5,0.7-0.9,0.9c-0.4,0.2-0.8,0.3-1.9,0.3H7.2c-1.1,0-1.5-0.1-1.9-0.3c-0.4-0.2-0.7-0.5-0.9-0.9C4.1,18.3,4,17.9,4,16.8 v-8c0-1.1,0.1-1.5,0.3-1.9c0.2-0.4,0.5-0.7,0.9-0.9c0.4-0.2,0.8-0.3,1.9-0.3H6.4V4c0-0.4,0.4-0.8,0.8-0.8S8,3.6,8,4v1.6h8V4 c0-0.4,0.4-0.8,0.8-0.8s0.8,0.4,0.8,0.8v1.6H16.8z M8,11.5c0.7,0,1.2-0.5,1.2-1.2S8.7,9.1,8,9.1s-1.2,0.5-1.2,1.2S7.3,11.5,8,11.5z M12,11.5c0.7,0,1.2-0.5,1.2-1.2S12.7,9.1,12,9.1s-1.2,0.5-1.2,1.2S11.3,11.5,12,11.5z M16,11.5c0.7,0,1.2-0.5,1.2-1.2 S16.7,9.1,16,9.1c-0.7,0-1.2,0.5-1.2,1.2S15.3,11.5,16,11.5z M8,16.4c0.7,0,1.2-0.5,1.2-1.2S8.7,14,8,14s-1.2,0.5-1.2,1.2 S7.3,16.4,8,16.4z M12,16.4c0.7,0,1.2-0.5,1.2-1.2S12.7,14,12,14s-1.2,0.5-1.2,1.2S11.3,16.4,12,16.4z" fill-rule="evenodd" clip-rule="evenodd"></path></g></svg>