<svg xmlns="http://www.w3.org/2000/svg" class="icon-attachment i-3" viewBox="0 0 24 24" width="24"  height="24" ><g fill="rgba(0, 0, 0, 0.54)" id="attachment"><path d="M13.1,11.9l1.4-1.4c0.4-0.4,0.4-0.9,0.1-1.2s-0.8-0.2-1.2,0.1L8.9,14L7.8,13l4.6-4.6c0.9-0.9,2.4-1,3.3-0.1s0.8,2.4-0.1,3.3 L14.2,13l-3.8,3.8c-1.5,1.5-4,1.6-5.5,0.2S3.6,13,5.1,11.5l0.1-0.1L10.6,6C12.6,4,15.9,4,18,6c2.1,2.1,2.1,5.4,0,7.4l-7,7L10,19.3 l7-7c1.5-1.5,1.5-3.8,0-5.3s-3.8-1.5-5.3,0l-5.3,5.3l-0.1,0.1c-1,1-1,2.5-0.2,3.3c0.9,0.9,2.4,0.8,3.3-0.2L13.1,11.9z"></path></g></svg>