<svg xmlns="http://www.w3.org/2000/svg" class="icon-quick-tomorrow i-mid i-o-36 i-h-o-54" viewBox="0 0 24 24" width="24"  height="24" ><g id="quick-tomorrow"><path d="M11.2,5.1l-1,1L9,5l2.4-2.4c0.3-0.3,0.8-0.3,1.1,0L15,5l-1.1,1.1l-1-1V8c3.2,0.4,5.6,3.1,5.6,6.4 c0,1.2-0.3,2.3-0.9,3.2H6.5c-0.5-0.9-0.9-2-0.9-3.2c0-3.3,2.4-6,5.6-6.4V5.1z M7.8,19.2h8.5h3c0.4,0,0.8,0.4,0.8,0.8 s-0.4,0.8-0.8,0.8H4.8C4.4,20.8,4,20.4,4,20s0.4-0.8,0.8-0.8H7.8z M2.4,14.4H4c0.4,0,0.8,0.4,0.8,0.8S4.4,16,4,16H2.4 c-0.4,0-0.8-0.4-0.8-0.8S2,14.4,2.4,14.4z M4.9,7.9L6,9c0.3,0.3,0.3,0.8,0,1.1c-0.3,0.3-0.8,0.3-1.1,0L3.8,9c-0.3-0.3-0.3-0.8,0-1.1 C4.1,7.5,4.6,7.5,4.9,7.9z M19.1,7.9c0.3-0.3,0.8-0.3,1.1,0c0.3,0.3,0.3,0.8,0,1.1l-1.1,1.1c-0.3,0.3-0.8,0.3-1.1,0 c-0.3-0.3-0.3-0.8,0-1.1L19.1,7.9z M20,14.4h1.6c0.4,0,0.8,0.4,0.8,0.8S22,16,21.6,16H20c-0.4,0-0.8-0.4-0.8-0.8S19.6,14.4,20,14.4z" fill-rule="evenodd" clip-rule="evenodd"></path></g></svg>