<svg xmlns="http://www.w3.org/2000/svg" class="icon-subtask-bold i-o-36" viewBox="0 0 20 20" width="20"  height="20" ><g id="subtask-bold"><g fill-rule="evenodd"><path fill="none" d="M0 0H20V20H0z"></path><path d="M12.2348024,13.5555556 C12.6277464,13.1132499 13.2088216,12.8333333 13.8571429,12.8333333 C15.0406102,12.8333333 16,13.7660734 16,14.9166667 C16,16.0672599 15.0406102,17 13.8571429,17 C12.8204466,17 11.955695,16.2842668 11.7571506,15.3333333 L6.82857143,15.3333333 C5.26639456,15.3333333 4,14.139426 4,12.6666667 L4,2.88888889 C4,2.39796911 4.42213152,2 4.94285714,2 C5.46358276,2 5.88571429,2.39796911 5.88571429,2.88888889 L5.88571429,7 L11.7571506,7 C11.955695,6.04906653 12.8204466,5.33333333 13.8571429,5.33333333 C15.0406102,5.33333333 16,6.26607344 16,7.41666667 C16,8.5672599 15.0406102,9.5 13.8571429,9.5 C13.1560781,9.5 12.5336458,9.17268613 12.1427002,8.66666667 L5.88571429,8.66666667 L5.88571429,12.6666667 C5.88571429,13.1575864 6.30784581,13.5555556 6.82857143,13.5555556 L12.2348024,13.5555556 Z M11.7571506,7.83333333 C11.7571506,7.83333333 11.7571506,7.83333333 11.7571506,7.83333333 L9.14285714,7.83333333 L11.7571506,7.83333333 Z M5.88571429,7.83333333 L9.14285714,7.83333333 L5.88571429,7.83333333 L5.88571429,7.83333333 Z" fill-rule="nonzero"></path></g></g></svg>