<svg xmlns="http://www.w3.org/2000/svg" class="icon-more i-o-36 i-h-o-54" viewBox="0 0 24 24" width="24"  height="24" ><g id="more"><style>#more .st0{fill-rule:evenodd;clip-rule:evenodd}</style><path id="more_more-copy-2" class="st0" d="M7.5,12c0,1-0.8,1.8-1.8,1.8C4.8,13.8,4,13,4,12s0.8-1.8,1.8-1.8C6.7,10.2,7.5,11,7.5,12 L7.5,12z"></path><path id="more_more-copy-3" class="st0" d="M20,12c0,1-0.8,1.8-1.8,1.8c-1,0-1.8-0.8-1.8-1.8s0.8-1.8,1.8-1.8C19.2,10.2,20,11,20,12 L20,12z"></path><path id="more_more-copy-4" class="st0" d="M13.8,12c0,1-0.8,1.8-1.8,1.8c-1,0-1.8-0.8-1.8-1.8s0.8-1.8,1.8-1.8C13,10.2,13.8,11,13.8,12 L13.8,12z"></path></g></svg>