<svg xmlns="http://www.w3.org/2000/svg" class="icon-text-mode i-4 mode-text" viewBox="0 0 24 24" width="24"  height="24" ><g fill="rgba(0, 0, 0, 0.24)" id="text-mode"><path d="M5.8,6h12.5C18.7,6,19,6.3,19,6.8s-0.3,0.8-0.8,0.8H5.8C5.3,7.5,5,7.2,5,6.8S5.3,6,5.8,6z M5.8,11h12.5 c0.4,0,0.8,0.3,0.8,0.8s-0.3,0.8-0.8,0.8H5.8c-0.4,0-0.8-0.3-0.8-0.8S5.3,11,5.8,11z M5.8,16h6.5c0.4,0,0.8,0.3,0.8,0.8 s-0.3,0.8-0.8,0.8H5.8c-0.4,0-0.8-0.3-0.8-0.8S5.3,16,5.8,16z" fill-rule="evenodd" clip-rule="evenodd"></path></g></svg>