<svg xmlns="http://www.w3.org/2000/svg" class="icon-upgrade-button-bg" viewBox="0 0 24 24" width="24"  height="24" ><g fill="rgba(255, 255, 255, 0.54)" id="upgrade-button-bg"><path d="M12.7,8.3l1.6,4.7l3-2.5C17.1,10.3,17,10,17,9.8c0-0.7,0.6-1.3,1.3-1.3s1.3,0.6,1.3,1.3c0,0.7-0.5,1.2-1.1,1.3 L17,17.3H7L5.6,11C5,11,4.5,10.4,4.5,9.8c0-0.7,0.6-1.3,1.3-1.3S7,9.1,7,9.8c0,0.3-0.1,0.5-0.2,0.7l3,2.5l1.6-4.7 c-0.5-0.2-0.8-0.7-0.8-1.3c0-0.8,0.7-1.5,1.5-1.5s1.5,0.7,1.5,1.5C13.5,7.6,13.1,8.1,12.7,8.3z" fill-rule="evenodd" clip-rule="evenodd"></path></g></svg>