<svg xmlns="http://www.w3.org/2000/svg" class="icon-item-repeat i-4" viewBox="0 0 16 16" width="16"  height="16" ><g fill="rgba(0, 0, 0, 0.24)" id="item-repeat"><path d="M7.4,11.9H8c2.1,0,3.9-1.7,3.9-3.9c0-1.2-0.5-2.2-1.4-3l0.8-1c1.1,1,1.8,2.4,1.8,3.9c0,2.8-2.3,5.1-5.1,5.1H5.9 c-0.6,0-0.8-0.7-0.4-1.1l2.1-2.1l0.9,0.9L7.4,11.9z M7.6,5.2l1.1-1.1H8C5.9,4.1,4.1,5.9,4.1,8c0,1.2,0.5,2.2,1.4,3l-0.8,1 C3.6,11,2.9,9.5,2.9,8c0-2.8,2.3-5.1,5.1-5.1h2.1c0.6,0,0.8,0.7,0.4,1.1L8.4,6.1L7.6,5.2z"></path></g></svg>