<svg xmlns="http://www.w3.org/2000/svg" class="icon-add-list" viewBox="0 0 24 24" width="24"  height="24" ><g fill="rgba(255, 255, 255, 0.54)" id="add-list"><path d="M12.8,11.2H16c0.5,0,0.8,0.4,0.8,0.8c0,0.5-0.4,0.8-0.8,0.8h-3.1V16c0,0.5-0.4,0.8-0.8,0.8 s-0.8-0.4-0.8-0.8v-3.1H8c-0.5,0-0.8-0.4-0.8-0.8c0-0.5,0.4-0.8,0.8-0.8h3.1V8.1c0-0.5,0.4-0.8,0.8-0.8s0.8,0.4,0.8,0.8V11.2z M12,20.1c4.5,0,8.1-3.6,8.1-8.1S16.5,3.9,12,3.9S3.9,7.5,3.9,12S7.5,20.1,12,20.1z" fill-rule="evenodd" clip-rule="evenodd"></path></g></svg>