<svg xmlns="http://www.w3.org/2000/svg" class="icon-quick-today i-mid i-o-36 i-h-o-54" viewBox="0 0 24 24" width="24"  height="24" ><g id="quick-today"><path d="M12,17.5c-3.1,0-5.5-2.5-5.5-5.5S8.9,6.5,12,6.5s5.5,2.5,5.5,5.5S15.1,17.5,12,17.5z M12,2.5 c0.4,0,0.8,0.4,0.8,0.8v1.6c0,0.4-0.4,0.8-0.8,0.8s-0.8-0.4-0.8-0.8V3.3C11.2,2.9,11.6,2.5,12,2.5z M12,18.3c0.4,0,0.8,0.4,0.8,0.8 v1.6c0,0.4-0.4,0.8-0.8,0.8s-0.8-0.4-0.8-0.8v-1.6C11.2,18.7,11.6,18.3,12,18.3z M18.7,5.3c0.3,0.3,0.3,0.8,0,1.1l-1.1,1.1 c-0.3,0.3-0.8,0.3-1.1,0c-0.3-0.3-0.3-0.8,0-1.1l1.1-1.1C17.9,5,18.4,5,18.7,5.3z M7.5,16.5c0.3,0.3,0.3,0.8,0,1.1l-1.1,1.1 c-0.3,0.3-0.8,0.3-1.1,0c-0.3-0.3-0.3-0.8,0-1.1l1.1-1.1C6.7,16.2,7.2,16.2,7.5,16.5z M21.5,12c0,0.4-0.4,0.8-0.8,0.8h-1.6 c-0.4,0-0.8-0.4-0.8-0.8s0.4-0.8,0.8-0.8h1.6C21.1,11.2,21.5,11.6,21.5,12z M5.7,12c0,0.4-0.4,0.8-0.8,0.8H3.3 c-0.4,0-0.8-0.4-0.8-0.8s0.4-0.8,0.8-0.8h1.6C5.3,11.2,5.7,11.6,5.7,12z M18.7,18.7c-0.3,0.3-0.8,0.3-1.1,0l-1.1-1.1 c-0.3-0.3-0.3-0.8,0-1.1c0.3-0.3,0.8-0.3,1.1,0l1.1,1.1C19,17.9,19,18.4,18.7,18.7z M7.5,7.5c-0.3,0.3-0.8,0.3-1.1,0L5.3,6.4 C5,6.1,5,5.6,5.3,5.3s0.8-0.3,1.1,0l1.1,1.1C7.8,6.7,7.8,7.2,7.5,7.5z" fill-rule="evenodd" clip-rule="evenodd"></path></g></svg>