<svg xmlns="http://www.w3.org/2000/svg" class="icon-priority-2 priority-medium" viewBox="0 0 24 24" width="24"  height="24" ><g fill="#ffc817" id="priority-2"><path d="M7.8,5.8C7.8,5.3,8.2,5,8.6,5C9,5,9.3,5.3,9.3,5.8v8.5C9.3,14.7,9,15,8.6,15 c-0.4,0-0.7-0.3-0.7-0.8V5.8z M14.7,5.8C14.7,5.3,15,5,15.4,5c0.4,0,0.7,0.3,0.7,0.8v8.5c0,0.4-0.3,0.8-0.7,0.8 c-0.4,0-0.8-0.3-0.8-0.8V5.8z M8.6,19c-0.6,0-1-0.4-1-1s0.4-1,1-1c0.6,0,1,0.4,1,1S9.1,19,8.6,19z M15.4,19c-0.6,0-1-0.4-1-1 s0.4-1,1-1c0.6,0,1,0.4,1,1S16,19,15.4,19z" fill-rule="evenodd" clip-rule="evenodd"></path></g></svg>