<svg xmlns="http://www.w3.org/2000/svg" class="icon-priority-3 i-o-36 i-black" viewBox="0 0 24 24" width="24"  height="24" ><g id="priority-3"><path d="M6.2,5.8C6.2,5.3,6.6,5,7,5c0.4,0,0.8,0.3,0.8,0.8v8.5C7.8,14.7,7.4,15,7,15 c-0.4,0-0.8-0.3-0.8-0.8V5.8z M11.2,5.8C11.2,5.3,11.6,5,12,5c0.4,0,0.8,0.3,0.8,0.8v8.5c0,0.4-0.3,0.8-0.8,0.8 c-0.4,0-0.8-0.3-0.8-0.8V5.8z M16.3,5.8c0-0.4,0.3-0.8,0.8-0.8c0.4,0,0.8,0.3,0.8,0.8v8.5c0,0.4-0.3,0.8-0.8,0.8 c-0.4,0-0.8-0.3-0.8-0.8V5.8z M7,19c-0.6,0-1-0.4-1-1s0.4-1,1-1s1,0.4,1,1S7.6,19,7,19z M12,19c-0.6,0-1-0.4-1-1s0.4-1,1-1 s1,0.4,1,1S12.6,19,12,19z M17,19c-0.6,0-1-0.4-1-1s0.4-1,1-1s1,0.4,1,1S17.6,19,17,19z" fill-rule="evenodd" clip-rule="evenodd"></path></g></svg>