<svg xmlns="http://www.w3.org/2000/svg" class="icon-task-menu-move i-o-36" viewBox="0 0 24 24" width="24"  height="24" ><g id="task-menu-move"><path d="M13,13.8H8v1.5h5l-1.5,1.5l1.1,1.1l2.8-2.8c0.3-0.3,0.3-0.8,0-1.1l-2.8-2.8l-1.1,1.1 L13,13.8z M7,9.5h10c1.1,0,2,0.9,2,2V17c0,1.4-1.1,2.5-2.5,2.5h-9C6.1,19.5,5,18.4,5,17v-5.5C5,10.4,5.9,9.5,7,9.5z M7.5,7h9 C17.3,7,18,7.7,18,8.5H6C6,7.7,6.7,7,7.5,7z M8.5,4.5h7C16.3,4.5,17,5.2,17,6H7C7,5.2,7.7,4.5,8.5,4.5z" fill-rule="evenodd" clip-rule="evenodd"></path></g></svg>