<svg xmlns="http://www.w3.org/2000/svg" class="icon-schedule-detail i-4 i-sml" viewBox="0 0 14 14" width="14"  height="14" ><g fill="rgba(0, 0, 0, 0.24)" id="schedule-detail"><path d="M0,2c0-1.1,0.9-2,2-2h10c1.1,0,2,0.9,2,2v10c0,1.1-0.9,2-2,2H2c-1.1,0-2-0.9-2-2V2z M1,2v10c0,0.6,0.4,1,1,1h10 c0.6,0,1-0.4,1-1V2c0-0.6-0.4-1-1-1H2C1.4,1,1,1.4,1,2z M1,3.5h12v1H1V3.5z M3.4,6.5h1.2v1.2H3.4V6.5z M9.4,6.5h1.2v1.2H9.4V6.5z M6.4,6.5h1.2v1.2H6.4V6.5z M3.4,9.5h1.2v1.2H3.4V9.5z M6.4,9.5h1.2v1.2H6.4V9.5z"></path></g></svg>