<svg xmlns="http://www.w3.org/2000/svg" class="icon-navigate navigator iconNavigator_17Kca i-o-24 hide-in-drag-preview" viewBox="0 0 16 16" width="16"  height="16" ><g id="navigate"><path d="M8,0 C3.58057812,0 0,3.58225513 0,8 C0,12.4177292 3.58057813,16 8,16 C12.4182812,16 16,12.4177449 16,8 C16,3.58227078 12.4182812,1.43145588e-15 8,0 Z M10.7337187,8.31815737 L10.7337188,8.31815735 C10.7099199,8.36805844 10.6791334,8.414304 10.6422902,8.45549625 L10.6068616,8.49669789 L6.9200022,12.0503497 L6.92000217,12.0503497 C6.62471935,12.3026803 6.18108185,12.2675191 5.92910998,11.9718126 C5.69845529,11.701123 5.70582717,11.3006137 5.94628717,11.0386193 L9.11886529,7.9805344 L5.93372467,4.96594913 L5.93372463,4.96594909 C5.66165588,4.68956386 5.66483556,4.24463956 5.94082495,3.97218181 C6.20354527,3.71282402 6.62194058,3.701475 6.89829683,3.94620801 L10.6171562,7.46208713 L10.6171562,7.46208715 C10.8362219,7.67204004 10.8940422,8.00000516 10.7600133,8.27238623 C10.7508704,8.29298705 10.7394419,8.30900993 10.7337275,8.31816581 L10.7337187,8.31815737 Z" fill-rule="nonzero"></path></g></svg>