<svg xmlns="http://www.w3.org/2000/svg" class="icon-calendar-list" viewBox="0 0 24 24" width="24"  height="24" ><g fill="rgba(255, 255, 255, 0.54)" id="calendar-list"><path d="M16.9,5.9h0.3c0.8,0,1,0.1,1.3,0.2c0.3,0.1,0.5,0.4,0.6,0.6s0.2,0.6,0.2,1.3v9.5c0,0.8-0.1,1-0.2,1.3 c-0.1,0.3-0.4,0.5-0.6,0.6c-0.3,0.1-0.6,0.2-1.3,0.2H6.8c-0.8,0-1-0.1-1.3-0.2S5,19.2,4.9,18.9c-0.1-0.3-0.2-0.6-0.2-1.3V8.1 c0-0.8,0.1-1,0.2-1.3s0.4-0.5,0.6-0.6s0.6-0.2,1.3-0.2h0.3V5.1c0-0.5,0.4-0.8,0.8-0.8c0.5,0,0.8,0.4,0.8,0.8v0.8h6.5V5.1 c0-0.5,0.4-0.8,0.8-0.8c0.5,0,0.8,0.4,0.8,0.8V5.9z M6.3,8.3V10h11.4V8.3H6.3z M8.4,12.4c-0.3,0-0.5,0.2-0.5,0.5v0.6 c0,0.3,0.2,0.5,0.5,0.5H9c0.3,0,0.5-0.2,0.5-0.5v-0.6c0-0.3-0.2-0.5-0.5-0.5H8.4z M11.7,12.4c-0.3,0-0.5,0.2-0.5,0.5v0.6 c0,0.3,0.2,0.5,0.5,0.5h0.6c0.3,0,0.5-0.2,0.5-0.5v-0.6c0-0.3-0.2-0.5-0.5-0.5H11.7z M15,12.4c-0.3,0-0.5,0.2-0.5,0.5v0.6 c0,0.3,0.2,0.5,0.5,0.5h0.6c0.3,0,0.5-0.2,0.5-0.5v-0.6c0-0.3-0.2-0.5-0.5-0.5H15z M8.4,15.7c-0.3,0-0.5,0.2-0.5,0.5v0.6 c0,0.3,0.2,0.5,0.5,0.5H9c0.3,0,0.5-0.2,0.5-0.5v-0.6c0-0.3-0.2-0.5-0.5-0.5H8.4z M11.7,15.7c-0.3,0-0.5,0.2-0.5,0.5v0.6 c0,0.3,0.2,0.5,0.5,0.5h0.6c0.3,0,0.5-0.2,0.5-0.5v-0.6c0-0.3-0.2-0.5-0.5-0.5H11.7z" fill-rule="evenodd" clip-rule="evenodd"></path></g></svg>