<svg xmlns="http://www.w3.org/2000/svg" class="icon-normal-list normal-icon active-icon" viewBox="0 0 24 24" width="24"  height="24" ><g fill="rgba(255, 255, 255, 0.54)" id="normal-list"><style>#normal-list .st0{fill-rule:evenodd;clip-rule:evenodd}</style><path id="normal-list_Fill-3" class="st0" d="M5.3,7h13.5c0.4,0,0.8-0.3,0.8-0.8l0,0c0-0.4-0.3-0.8-0.8-0.8H5.3c-0.4,0-0.8,0.3-0.8,0.8l0,0 C4.5,6.7,4.8,7,5.3,7z"></path><path id="normal-list_Fill-4" class="st0" d="M5.3,12.8h13.5c0.4,0,0.8-0.3,0.8-0.8l0,0c0-0.4-0.3-0.8-0.8-0.8H5.3c-0.4,0-0.8,0.3-0.8,0.8l0,0 C4.5,12.4,4.8,12.8,5.3,12.8z"></path><path id="normal-list_Fill-5" class="st0" d="M5.3,18.5h13.5c0.4,0,0.8-0.3,0.8-0.8l0,0c0-0.4-0.3-0.8-0.8-0.8H5.3c-0.4,0-0.8,0.3-0.8,0.8l0,0 C4.5,18.2,4.8,18.5,5.3,18.5z"></path></g></svg>