<svg xmlns="http://www.w3.org/2000/svg" class="icon-drag i-4 i-mic" viewBox="0 0 12 12" width="12"  height="12" ><g fill="rgba(0, 0, 0, 0.24)" id="drag"><path d="M2,3c0-0.3,0.2-0.5,0.5-0.5h7C9.8,2.5,10,2.7,10,3c0,0.3-0.2,0.5-0.5,0.5h-7C2.2,3.5,2,3.3,2,3z M2,6 c0-0.3,0.2-0.5,0.5-0.5h7C9.8,5.5,10,5.7,10,6c0,0.3-0.2,0.5-0.5,0.5h-7C2.2,6.5,2,6.3,2,6z M2,9c0-0.3,0.2-0.5,0.5-0.5h7 C9.8,8.5,10,8.7,10,9c0,0.3-0.2,0.5-0.5,0.5h-7C2.2,9.5,2,9.3,2,9z" fill-rule="evenodd" clip-rule="evenodd"></path></g></svg>