<svg xmlns="http://www.w3.org/2000/svg" class="icon-inbox-list" viewBox="0 0 24 24" width="24"  height="24" ><g fill="rgba(255, 255, 255, 0.54)" id="inbox-list"><path d="M6.9,4.7c-0.7,0-1.1,0.1-1.4,0.2C5.3,5.1,5.1,5.3,4.9,5.6C4.8,5.9,4.7,6.2,4.7,6.9v10.1 c0,0.7,0.1,1.1,0.2,1.4c0.1,0.3,0.4,0.5,0.6,0.6c0.3,0.2,0.6,0.2,1.4,0.2h10.1c0.7,0,1.1-0.1,1.4-0.2c0.3-0.1,0.5-0.4,0.6-0.6 c0.2-0.3,0.2-0.6,0.2-1.4V6.9c0-0.7-0.1-1.1-0.2-1.4c-0.1-0.3-0.4-0.5-0.6-0.6c-0.3-0.2-0.6-0.2-1.4-0.2H6.9z M14.7,13.8v3.5 c0,0.4-0.3,0.7-0.7,0.7h-4c-0.4,0-0.7-0.3-0.7-0.7v-3.5L6,13V6.6C6,6.3,6.3,6,6.6,6h10.7C17.7,6,18,6.3,18,6.6V13L14.7,13.8z M8,8.9 v1.2H16V8.9H8z" fill-rule="evenodd" clip-rule="evenodd"></path></g></svg>