<svg xmlns="http://www.w3.org/2000/svg" class="icon-copy-task-link i-o-36" viewBox="0 0 24 24" width="24"  height="24" ><g id="copy-task-link"><path d="M13.795,7c1.114,0,1.519,0.116,1.926,0.334c0.407,0.218,0.727,0.538,0.945,0.945 C16.884,8.686,17,9.09,17,10.205v6.59c0,1.114-0.116,1.519-0.334,1.926c-0.218,0.407-0.538,0.727-0.945,0.945S14.91,20,13.795,20 h-6.59c-1.114,0-1.519-0.116-1.926-0.334c-0.407-0.218-0.727-0.538-0.945-0.945C4.116,18.314,4,17.91,4,16.795v-6.59 C4,9.09,4.116,8.686,4.334,8.279c0.218-0.407,0.538-0.727,0.945-0.945C5.686,7.116,6.09,7,7.205,7H13.795z M11.915,12.763 c-0.244,0.244-0.254,0.63-0.021,0.863l0.842,0.842c0.465,0.465,0.446,1.238-0.042,1.726c-0.488,0.488-1.261,0.507-1.726,0.042 l-0.842-0.842c-0.233-0.233-0.618-0.223-0.863,0.021c-0.244,0.244-0.254,0.63-0.021,0.863l0.842,0.842 c0.93,0.93,2.475,0.892,3.451-0.084s1.014-2.522,0.084-3.451l-0.842-0.842C12.545,12.51,12.159,12.519,11.915,12.763z M16.154,4 c1.337,0,1.822,0.139,2.311,0.401c0.489,0.261,0.873,0.645,1.134,1.134C19.861,6.024,20,6.509,20,7.846v5.67 c0,1.281-0.125,1.746-0.363,2.221c-0.238,0.475-0.591,0.854-1.046,1.128c-0.082,0.049-0.163,0.094-0.249,0.136 c0.079-0.32,0.123-0.731,0.132-1.361l0.002-0.247V9.344c0-1.337-0.139-1.822-0.401-2.311s-0.645-0.873-1.134-1.134 c-0.458-0.245-0.913-0.383-2.07-0.399l-0.241-0.002H8.575C7.84,5.498,7.362,5.54,7,5.622c0.015-0.029,0.03-0.058,0.046-0.087 C7.307,5.046,7.691,4.662,8.18,4.401S9.154,4,10.491,4H16.154z M8.821,12.321c-0.326,0.326-0.414,0.765-0.196,0.982l1.571,1.571 c0.217,0.217,0.656,0.129,0.982-0.196c0.326-0.326,0.414-0.765,0.196-0.982l-1.571-1.571C9.586,11.908,9.147,11.996,8.821,12.321z M6.464,9.964c-0.976,0.976-1.014,2.522-0.084,3.451l0.842,0.842c0.233,0.233,0.618,0.223,0.863-0.021 c0.244-0.244,0.254-0.63,0.021-0.863l-0.842-0.842c-0.465-0.465-0.446-1.238,0.042-1.726s1.261-0.507,1.726-0.042l0.842,0.842 c0.233,0.233,0.619,0.223,0.863-0.021c0.244-0.244,0.254-0.63,0.021-0.863L9.916,9.88C8.986,8.951,7.441,8.988,6.464,9.964z" fill-rule="evenodd" clip-rule="evenodd"></path></g></svg>