<svg xmlns="http://www.w3.org/2000/svg" class="icon-date-unselected i-2-1 fast-transition normal-icon" viewBox="0 0 24 24" width="24"  height="24" ><g fill="rgba(0, 0, 0, 0.85)" id="date-unselected"><path d="M15,6V5c0-0.6,0.4-1,1-1s1,0.4,1,1v1c0.5,0,0.7,0.1,1,0.3c0.3,0.2,0.6,0.4,0.8,0.8C18.9,7.3,19,7.7,19,8.6v7.9 c0,0.9-0.1,1.2-0.3,1.5c-0.2,0.3-0.4,0.6-0.8,0.8c-0.3,0.2-0.6,0.3-1.5,0.3H7.6c-0.9,0-1.2-0.1-1.5-0.3c-0.3-0.2-0.6-0.4-0.8-0.8 C5.1,17.7,5,17.3,5,16.4V8.6C5,7.7,5.1,7.3,5.3,7C5.4,6.7,5.7,6.4,6,6.3C6.3,6.1,6.5,6.1,7,6V5c0-0.6,0.4-1,1-1s1,0.4,1,1v1H15z M8,11c0.6,0,1-0.4,1-1c0-0.6-0.4-1-1-1s-1,0.4-1,1C7,10.6,7.4,11,8,11z M12,11c0.6,0,1-0.4,1-1c0-0.6-0.4-1-1-1s-1,0.4-1,1 C11,10.6,11.4,11,12,11z M8,15c0.6,0,1-0.4,1-1s-0.4-1-1-1s-1,0.4-1,1S7.4,15,8,15z M12,15c0.6,0,1-0.4,1-1s-0.4-1-1-1s-1,0.4-1,1 S11.4,15,12,15z M16,11c0.6,0,1-0.4,1-1c0-0.6-0.4-1-1-1s-1,0.4-1,1C15,10.6,15.4,11,16,11z" fill-rule="evenodd" clip-rule="evenodd"></path></g></svg>