<svg xmlns="http://www.w3.org/2000/svg" class="icon-print-in-list i-3" viewBox="0 0 24 24" width="24"  height="24" ><g fill="rgba(0, 0, 0, 0.54)" id="print-in-list"><path d="M17,17.2c0-0.2,0-0.4,0-0.6v-2.3c0-0.7-0.1-0.9-0.2-1.2c-0.1-0.2-0.3-0.4-0.6-0.6c-0.2-0.1-0.5-0.2-1.2-0.2H8.9 c-0.7,0-0.9,0.1-1.2,0.2c-0.2,0.1-0.4,0.3-0.6,0.6C7.1,13.4,7,13.7,7,14.4v2.3c0,0.3,0,0.5,0,0.6h0c-1.1,0-2-0.9-2-2v-4.8 c0-1.1,0.9-2,2-2h10c1.1,0,2,0.9,2,2v4.8C19,16.4,18.1,17.2,17,17.2L17,17.2z M16,11.5c0.6,0,1-0.4,1-1c0-0.6-0.4-1-1-1s-1,0.4-1,1 C15,11.1,15.4,11.5,16,11.5z M9.1,5h5.8c0.8,0,1.5,0.7,1.5,1.5v1H7.6v-1C7.6,5.7,8.3,5,9.1,5z M9.8,13.5h4.4c0.4,0,0.6,0,0.8,0.1 c0.2,0.1,0.3,0.2,0.4,0.4c0.1,0.2,0.1,0.3,0.1,0.8v2.9c0,0.4,0,0.6-0.1,0.8c-0.1,0.2-0.2,0.3-0.4,0.4C14.8,19,14.7,19,14.2,19H9.8 c-0.4,0-0.6,0-0.8-0.1c-0.2-0.1-0.3-0.2-0.4-0.4c-0.1-0.2-0.1-0.3-0.1-0.8v-2.9c0-0.4,0-0.6,0.1-0.8c0.1-0.2,0.2-0.3,0.4-0.4 C9.2,13.5,9.3,13.5,9.8,13.5z" fill-rule="evenodd" clip-rule="evenodd"></path></g></svg>