<svg xmlns="http://www.w3.org/2000/svg" class="icon-quick-nextweek i-mid i-o-36 i-h-o-54" viewBox="0 0 24 24" width="24"  height="24" ><g id="quick-nextweek"><path d="M8.8,12H7.2v1.6h1.6v1.6h1.6v-1.6H12V12h-1.6v-1.6H8.8V12z M16.8,5.6c1.1,0,1.5,0.1,1.9,0.3 c0.4,0.2,0.7,0.5,0.9,0.9S20,7.7,20,8.8v8c0,1.1-0.1,1.5-0.3,1.9c-0.2,0.4-0.5,0.7-0.9,0.9c-0.4,0.2-0.8,0.3-1.9,0.3H7.2 c-1.1,0-1.5-0.1-1.9-0.3c-0.4-0.2-0.7-0.5-0.9-0.9C4.1,18.3,4,17.9,4,16.8v-8c0-1.1,0.1-1.5,0.3-1.9c0.2-0.4,0.5-0.7,0.9-0.9 c0.4-0.2,0.8-0.3,1.9-0.3H6.4V4c0-0.4,0.4-0.8,0.8-0.8S8,3.6,8,4v1.6h8V4c0-0.4,0.4-0.8,0.8-0.8s0.8,0.4,0.8,0.8v1.6H16.8z M11.8,10.9h3.5l-2.5,6h1.7l2.5-6.3l0-1V9.4h-5.2V10.9z" fill-rule="evenodd" clip-rule="evenodd"></path></g></svg>