<svg xmlns="http://www.w3.org/2000/svg" class="icon-sort-by-custom i-o-36 i-h-o-54" viewBox="0 0 24 24" width="24"  height="24" ><g id="sort-by-custom"><path d="M15.3,13.2l-1.2,0.5c-0.3,0.1-0.5,0-0.7-0.2c-0.1-0.1-0.1-0.3,0-0.4l0.5-1.2c0.1-0.2,0.2-0.4,0.4-0.6l5.1-5.1 c0.4-0.4,1.1-0.4,1.5,0c0.4,0.4,0.4,1.1,0,1.5l-5.1,5.1C15.7,12.9,15.5,13.1,15.3,13.2z M5.2,17.4V5c0-0.4,0.3-0.8,0.8-0.8 S6.8,4.6,6.8,5v14c0,0.6-0.8,1-1.2,0.6l-3-2.6c-0.3-0.3-0.3-0.7-0.1-1.1s0.7-0.3,1.1-0.1L5.2,17.4z M15.5,6v1.5c-2.6,0-4.3,0-5,0 c-0.6,0-0.9,0.4-0.9,0.9c0,1.4,0,5.3,0,7c0,0.6,0.3,1.1,0.9,1.1c2.2,0,5.7,0,7.2,0c0.6,0,0.9-0.5,0.9-1.1c0-0.5,0-1.5,0-3l1.5,0 c0,1.3,0,2.4,0,3.3c0,1.2-0.6,2.3-2.9,2.3c-2,0-3.7,0-6.7,0C8.9,18,8,17,8,15.4c0-2.1,0-5.5,0-7C8,6.8,9,6,10.4,6 C11.6,6,13.3,6,15.5,6z" fill-rule="evenodd" clip-rule="evenodd"></path></g></svg>