<svg xmlns="http://www.w3.org/2000/svg" class="icon-item-reminder i-s-16 i-o-12 i-black" viewBox="0 0 16 16" width="16"  height="16" ><g id="item-reminder"><path d="M5.7,11.8l-0.6,1C5,13,4.7,13.1,4.4,13c-0.2-0.1-0.3-0.4-0.2-0.7l0.7-1.1c-0.7-0.8-1.2-1.8-1.2-2.9 C3.8,5.9,5.7,4,8,4s4.2,1.9,4.2,4.2c0,1.1-0.4,2.2-1.2,2.9l0.7,1.1c0.1,0.2,0.1,0.5-0.2,0.7S11,13,10.9,12.8l-0.6-1 c-0.7,0.4-1.5,0.7-2.3,0.7C7.1,12.5,6.4,12.2,5.7,11.8z M8.5,8V6c0-0.3-0.2-0.5-0.5-0.5C7.7,5.5,7.5,5.7,7.5,6v3h2 C9.8,9,10,8.8,10,8.5S9.8,8,9.5,8H8.5z M3,7.1c-0.3-0.5-0.5-1-0.5-1.6c0-1.7,1.3-3,3-3c0.7,0,1.3,0.2,1.8,0.6c0,0,0,0,0,0l0,0 c0.1,0.1,0.1,0.2,0,0.3c0,0-0.1,0.1-0.1,0.1C5.4,3.9,3.9,5.3,3.4,7.1c0,0.1-0.2,0.2-0.3,0.2C3.1,7.2,3,7.2,3,7.1C3,7.1,3,7.1,3,7.1z M13,7.1C13,7.1,13,7.1,13,7.1c0,0.1-0.1,0.1-0.1,0.1c-0.1,0-0.2,0-0.3-0.2c-0.5-1.8-2-3.2-3.8-3.5c-0.1,0-0.1,0-0.1-0.1 c-0.1-0.1-0.1-0.3,0-0.3l0,0c0,0,0,0,0,0c0.5-0.4,1.2-0.6,1.8-0.6c1.7,0,3,1.3,3,3C13.5,6.1,13.3,6.7,13,7.1z" fill-rule="evenodd" clip-rule="evenodd"></path></g></svg>