<svg xmlns="http://www.w3.org/2000/svg" class="icon-today-list fill-theme active-icon i-5" viewBox="0 0 24 24" width="24"  height="24" ><g fill="#e13e39" id="today-list"><path d="M17,5.8h0.7c0.6,0,0.9,0.1,1.1,0.2s0.4,0.3,0.5,0.5s0.2,0.5,0.2,1.1v10.5 c0,0.6-0.1,0.9-0.2,1.1s-0.3,0.4-0.5,0.5s-0.5,0.2-1.1,0.2H6.3c-0.6,0-0.9-0.1-1.1-0.2s-0.4-0.3-0.5-0.5s-0.2-0.5-0.2-1.1V7.6 c0-0.6,0.1-0.9,0.2-1.1S5,6.1,5.2,5.9s0.5-0.2,1.1-0.2H7V4.9c0-0.5,0.4-0.8,0.8-0.8c0.4,0,0.8,0.4,0.8,0.8v0.8h6.7V4.9 c0-0.5,0.4-0.8,0.8-0.8c0.5,0,0.8,0.4,0.8,0.8v0.9H17z" fill-rule="evenodd" clip-rule="evenodd"></path></g></svg>