<svg xmlns="http://www.w3.org/2000/svg" class="icon-folder normal-icon" viewBox="0 0 24 24" width="24"  height="24" ><g fill="rgba(255, 255, 255, 0.54)" id="folder"><path d="M3.9,17.7c0,0.4,0.3,0.7,0.7,0.7h14.8c0.4,0,0.7-0.3,0.7-0.7l0-9.9c0,0,0,0,0,0 c0-0.3-0.3-0.6-0.6-0.6h-6.7c-0.6,0-1.1-0.2-1.5-0.6l-0.8-0.8c-0.1-0.1-0.3-0.2-0.5-0.2H4.5c-0.3,0-0.6,0.3-0.6,0.6V17.7z M6,8.9 h12.1c0.5,0,0.8,0.4,0.8,0.8s-0.4,0.8-0.8,0.8H6c-0.5,0-0.8-0.4-0.8-0.8S5.5,8.9,6,8.9z" fill-rule="evenodd" clip-rule="evenodd"></path></g></svg>