<svg xmlns="http://www.w3.org/2000/svg" class="icon-version-history i-3" viewBox="0 0 24 24" width="24"  height="24" ><g fill="rgba(0, 0, 0, 0.54)" id="version-history"><path d="M4.3,11.2c0.4-3.9,3.7-7,7.7-7c4.3,0,7.8,3.5,7.8,7.8c0,4.3-3.5,7.8-7.8,7.8h-0.8v-1.5H12 c3.5,0,6.2-2.8,6.2-6.2c0-3.5-2.8-6.2-6.2-6.2c-3.2,0-5.8,2.3-6.2,5.4l1.7-1.7l1.1,1.1l-3,3c-0.3,0.3-0.8,0.3-1.1,0l-3-3l1.1-1.1 L4.3,11.2z M12.5,12h2.8c0.4,0,0.8,0.3,0.8,0.8s-0.3,0.8-0.8,0.8H11V13V8.8C11,8.3,11.3,8,11.8,8s0.8,0.3,0.8,0.8V12z" fill-rule="evenodd" clip-rule="evenodd"></path></g></svg>