<svg xmlns="http://www.w3.org/2000/svg" class="icon-user-icon icon-s-normal-tny" viewBox="0 0 8 8" width="8"  height="8" ><g fill="#aeaeae" id="user-icon"><path d="M4,0L4,0c2.21,0,4,1.79,4,4l0,0c0,2.21-1.79,4-4,4l0,0C1.79,8,0,6.21,0,4l0,0 C0,1.79,1.79,0,4,0z" fill-rule="evenodd" clip-rule="evenodd"></path><path d="M4.23,2.94l0.52,1.59l1-0.85C5.7,3.61,5.67,3.52,5.67,3.43C5.67,3.19,5.85,3,6.08,3 C6.31,3,6.5,3.19,6.5,3.43c0,0.22-0.17,0.41-0.38,0.43L5.67,6H2.33L1.88,3.86C1.67,3.84,1.5,3.65,1.5,3.43C1.5,3.19,1.69,3,1.92,3 s0.42,0.19,0.42,0.43c0,0.09-0.03,0.18-0.08,0.25l1,0.85l0.52-1.59C3.62,2.86,3.51,2.69,3.51,2.5C3.51,2.22,3.73,2,4,2 s0.49,0.22,0.49,0.5C4.49,2.69,4.38,2.86,4.23,2.94z" fill-rule="evenodd" clip-rule="evenodd" fill="#ffffff"></path></g></svg>