<svg xmlns="http://www.w3.org/2000/svg" class="icon-summary-list" viewBox="0 0 24 24" width="24"  height="24" ><g fill="rgba(255, 255, 255, 0.54)" id="summary-list"><path d="M18,15.2l-4,4.3H8c-1.1,0-2-0.9-2-2v-11c0-1.1,0.9-2,2-2h8c1.1,0,2,0.9,2,2V15.2z M8.8,7.7 C8.3,7.7,8,8,8,8.5c0,0.4,0.3,0.8,0.8,0.8h5.5c0.4,0,0.8-0.3,0.8-0.8c0-0.4-0.3-0.8-0.8-0.8H8.8z M8.8,12C8.3,12,8,12.3,8,12.8 s0.3,0.8,0.8,0.8h3.5c0.4,0,0.8-0.3,0.8-0.8S12.7,12,12.2,12H8.8z" fill-rule="evenodd" clip-rule="evenodd"></path></g></svg>