<svg xmlns="http://www.w3.org/2000/svg" data-name="Layer 1" viewBox="0 0 100 125" x="0px" y="0px"><title>66</title><path d="M85.98633,9.63574H14.0127A9.0236,9.0236,0,0,0,5,18.64941V62.2959a9.02276,9.02276,0,0,0,9.0127,9.01269h4.78808L15.0957,87.02832c-.0166.06934-.02929.14063-.04.21191a2.73107,2.73107,0,0,0,2.6875,3.12305,2.86749,2.86749,0,0,0,1.834-.68848L40.1875,71.30859H85.98633A9.02359,9.02359,0,0,0,95,62.2959V18.64941A9.02444,9.02444,0,0,0,85.98633,9.63574ZM90,62.2959a4.01771,4.01771,0,0,1-4.01367,4.01269h-46.751a2.49946,2.49946,0,0,0-1.66308.63379l-15.957,14.22168L24.3916,69.38184A2.50046,2.50046,0,0,0,21.958,66.30859H14.0127A4.01687,4.01687,0,0,1,10,62.2959V18.64941a4.01771,4.01771,0,0,1,4.0127-4.01367H85.98633A4.01854,4.01854,0,0,1,90,18.64941Z"/><text x="0" y="115" fill="#000000" font-size="5px" font-weight="bold" font-family="'Helvetica Neue', Helvetica, Arial-Unicode, Arial, Sans-serif">Created by TTHNga</text><text x="0" y="120" fill="#000000" font-size="5px" font-weight="bold" font-family="'Helvetica Neue', Helvetica, Arial-Unicode, Arial, Sans-serif">from the Noun Project</text></svg>