<svg xmlns="http://www.w3.org/2000/svg" class="icon-pdf" viewBox="0 0 24 24" width="24"  height="24" ><g id="pdf"><path d="M5,2h10l6,6v12c0,1.1-0.9,2-2,2H5c-1.1,0-2-0.9-2-2V4C3,2.9,3.9,2,5,2z" fill-rule="evenodd" clip-rule="evenodd" fill="#ff6267"></path><path d="M17.1,15.3c1.6-0.2,1.1-0.6,0-1.1c-2.8-1.2-9.4,0.7-11,3.9c-0.6,1.1,1,1.5,2.4-0.6 c1.5-2.3,3.3-3.8,3.8-8.3C12.7,6.8,11.6,7,11.6,7C9.9,7.5,11.6,16.2,17.1,15.3z" fill="none" stroke="#fff2f3"></path><path d="M15,2l6,6h-4c-1.1,0-2-0.9-2-2V2z" opacity=".1" fill-rule="evenodd" clip-rule="evenodd"></path></g></svg>