<svg xmlns="http://www.w3.org/2000/svg" class="icon-item-attachment i-s-16 i-o-12 i-black" viewBox="0 0 16 16" width="16"  height="16" ><g id="item-attachment"><path d="M5.3,10.9L10,6.2c0.1-0.1,0.3-0.1,0.5,0c0.1,0.1,0.1,0.3,0,0.5l-4.7,4.7c-0.5,0.5-1.3,0.5-1.8,0c-0.5-0.5-0.5-1.3,0-1.8 l4.7-4.7c0.9-0.9,2.3-0.9,3.2,0c0.9,0.9,0.9,2.3,0,3.2l-3.4,3.4c-0.2,0.2-0.2,0.6,0,0.9s0.6,0.2,0.9,0l3.4-3.4 c1.4-1.4,1.4-3.6,0-4.9c-1.4-1.4-3.6-1.4-4.9,0L3,8.7c-1,1-1,2.6,0,3.6c1,1,2.6,1,3.6,0l4.7-4.7c0.6-0.6,0.6-1.6,0-2.2 c-0.6-0.6-1.6-0.6-2.2,0l-4.7,4.7c-0.2,0.2-0.2,0.6,0,0.9S5,11.2,5.3,10.9z"></path></g></svg>